Coordinates
version=1
nRows=8
nColumns=63
inDegrees=yes

Units are S.I. units (second, meters, Newtons, ...)
If the header above contains a line with 'inDegrees', this indicates whether rotational values are in degrees (yes) or radians (no).

endheader
time	pelvis_tilt	pelvis_list	pelvis_rotation	pelvis_tx	pelvis_ty	pelvis_tz	hip_flexion_r	hip_adduction_r	hip_rotation_r	knee_angle_r	knee_angle_r_beta	ankle_angle_r	subtalar_angle_r	mtp_angle_r	hip_flexion_l	hip_adduction_l	hip_rotation_l	knee_angle_l	knee_angle_l_beta	ankle_angle_l	subtalar_angle_l	mtp_angle_l	L5_S1_Flex_Ext	L5_S1_Lat_Bending	L5_S1_axial_rotation	L4_L5_Flex_Ext	L4_L5_Lat_Bending	L4_L5_axial_rotation	L3_L4_Flex_Ext	L3_L4_Lat_Bending	L3_L4_axial_rotation	L2_L3_Flex_Ext	L2_L3_Lat_Bending	L2_L3_axial_rotation	L1_L2_Flex_Ext	L1_L2_Lat_Bending	L1_L2_axial_rotation	L1_T12_Flex_Ext	L1_T12_Lat_Bending	L1_T12_axial_rotation	Abs_r3	Abs_r2	Abs_r1	Abs_t1	Abs_t2	neck_flexion	neck_bending	neck_rotation	arm_flex_r	arm_add_r	arm_rot_r	elbow_flex_r	pro_sup_r	wrist_flex_r	wrist_dev_r	arm_flex_l	arm_add_l	arm_rot_l	elbow_flex_l	pro_sup_l	wrist_flex_l	wrist_dev_l
     12.25000000	      7.46737405	      8.12589570	     83.80015238	      0.07049039	      1.08537419	      0.31430241	     -9.11764055	      4.84492119	    -15.04304533	     13.35311449	      0.23305581	     30.45691476	     17.25465506	      0.00000000	     -9.49159624	     -5.56026686	      8.05387459	     13.42164464	      0.23425189	     28.85962024	     -5.91985823	      0.00000000	     -0.51562664	      0.60376158	      3.09252781	     -0.95757023	      0.80300290	      3.28581080	     -0.84712300	      1.46798590	      3.28581080	     -0.58930968	      1.46798590	      2.70596184	     -0.47881089	      1.23119061	      2.51267885	     -0.29462906	      0.93522668	      2.31939586	     -3.68306950	      6.82987171	     17.19971195	      0.00000000	      0.00000000	      1.18908626	      4.77227933	    -43.75915102	     67.61181078	    -40.25933176	    -12.77443006	    100.13870973	     86.34779504	    -39.44972585	      2.36000511	     67.08845323	     42.41607632	    182.50562647	      0.07066152	      1.18078318	    -69.79374197	    -24.33380964
     12.26785714	      7.73643256	      8.26219566	     84.02898268	      0.06919281	      1.08590259	      0.31402657	     -9.39773079	      5.11967738	    -15.21964090	     13.12296266	      0.22903891	     30.23775563	     17.29480112	      0.00000000	     -9.61333078	     -5.78182541	      8.33347152	     13.55461988	      0.23657275	     28.78001673	     -5.93476793	      0.00000000	     -0.49510289	      0.65043776	      3.04920241	     -0.91945558	      0.86508222	      3.23977756	     -0.81340454	      1.58147438	      3.23977756	     -0.56585310	      1.58147438	      2.66805211	     -0.45975255	      1.32637269	      2.47747696	     -0.28290179	      1.00752809	      2.28690181	     -3.53647046	      7.35788206	     16.95874903	      0.00000000	      0.00000000	     -0.46033106	      3.98834905	    -43.93485236	     67.80282773	    -40.43866076	    -12.59242648	     99.50295323	     86.72598511	    -46.02097688	      1.21187142	     66.58901972	     42.55920699	    184.91113515	      0.06884141	      1.06951350	    -69.80052721	    -24.35907540
     12.28571429	      8.11779808	      8.32401963	     84.18708274	      0.06780808	      1.08645571	      0.31432090	     -9.49044918	      5.48611901	    -15.20920936	     13.04042699	      0.22759839	     30.04159722	     17.29747715	      0.00000000	     -9.60191170	     -6.13910275	      8.25744118	     13.77029468	      0.24033698	     28.88608234	     -5.52544235	      0.00000000	     -0.51861711	      0.70375082	      3.06714224	     -0.96312383	      0.93598859	      3.25883863	     -0.85203605	      1.71109974	      3.25883863	     -0.59272749	      1.71109974	      2.68374946	     -0.48158785	      1.43508867	      2.49205307	     -0.29633782	      1.09011002	      2.30035668	     -3.70443014	      7.96097002	     17.05852500	      0.00000000	      0.00000000	     -1.15429566	      3.91534025	    -43.91947238	     67.03609087	    -40.68473253	    -14.59908141	    101.14015782	     86.06087446	    -47.70325519	      1.13364492	     66.19216659	     43.13194974	    185.94759878	      0.06784923	      1.09605329	    -69.80555560	    -24.41417081
     12.30357143	      8.45018345	      8.31301707	     84.35777126	      0.06650532	      1.08678122	      0.31511087	     -9.38902603	      5.79223336	    -15.17911806	     13.14065867	      0.22934776	     29.97595246	     17.28735174	      0.00000000	     -9.36028665	     -6.64345094	      6.69906436	     14.19208583	      0.24769863	     29.61204631	     -2.87037329	      0.00000000	     -0.57561990	      0.74738993	      3.11396540	     -1.06898372	      0.99402861	      3.30858824	     -0.94568593	      1.81720388	      3.30858824	     -0.65787598	      1.81720388	      2.72471973	     -0.53452064	      1.52407755	      2.53009689	     -0.32890921	      1.15770700	      2.33547405	     -4.11159539	      8.45462437	     17.31894138	      0.00000000	      0.00000000	     -0.95634484	      4.19647917	    -43.70069562	     66.42204783	    -41.21242562	    -16.85968661	    103.97373340	     85.09655669	    -48.99540254	      2.45644658	     66.06831150	     43.91636501	    186.76077095	      0.06679739	      1.06968318	    -69.81178552	    -24.44852897
     12.32142857	      8.81204693	      8.27701198	     84.61786293	      0.06492438	      1.08694458	      0.31578587	     -9.29991429	      6.14887631	    -15.17882779	     13.16745589	      0.22981546	     29.88362172	     17.26113072	      0.00000000	     -9.16059475	     -7.03207300	      6.56624001	     14.46270563	      0.25242183	     29.92797413	     -2.24019496	      0.00000000	     -0.63955530	      0.79978107	      3.14159862	     -1.18771815	      1.06370883	      3.33794854	     -1.05072541	      1.94458770	      3.33794854	     -0.73094776	      1.94458770	      2.74889880	     -0.59389105	      1.63091357	      2.55254888	     -0.36544190	      1.23886088	      2.35619897	     -4.56827958	      9.04728346	     17.47262907	      0.00000000	      0.00000000	     -0.38347341	      4.59101947	    -43.18101299	     66.25345510	    -41.76942539	    -19.02753099	    106.88062239	     83.52669493	    -48.21573099	      3.99275149	     66.13174940	     44.76272347	    187.00105957	      0.06594349	      1.06178176	    -69.81764361	    -24.47259058
     12.33928571	      8.99104494	      8.28615089	     84.73571727	      0.06381170	      1.08700016	      0.31620395	     -9.21738857	      6.28128907	    -15.09317529	     13.29953980	      0.23212076	     29.99664864	     17.28632897	      0.00000000	     -9.13354448	     -7.19178509	      6.63624522	     14.52295416	      0.25347337	     30.00742556	     -2.05949403	      0.00000000	     -0.69366949	      0.83692477	      3.15332613	     -1.28821361	      1.11310995	      3.35040902	     -1.13962960	      2.03489890	      3.35040902	     -0.79279486	      2.03489890	      2.75916037	     -0.64414149	      1.70665700	      2.56207748	     -0.39636275	      1.29639648	      2.36499460	     -4.95481179	      9.46746043	     17.53785396	      0.00000000	      0.00000000	     -0.34453505	      4.48373564	    -42.41768916	     66.83814475	    -41.68372277	    -20.24352305	    108.69412399	     83.34099259	    -48.08596520	      4.04345728	     66.32217300	     45.34298035	    186.87796155	      0.06513743	      1.02299272	    -69.82261221	    -24.48058833
     12.35714286	      9.10146994	      8.25805343	     85.01370164	      0.06321093	      1.08682411	      0.31602592	     -9.17149043	      6.43444795	    -15.05296031	     13.31957400	      0.23247042	     30.08569314	     17.19181525	      0.00000000	     -8.96798955	     -7.56893594	      4.96725913	     14.73575027	      0.25718736	     30.74663954	      0.57405620	      0.00000000	     -0.72206800	      0.84923119	      3.12168871	     -1.34095249	      1.12947748	      3.31679426	     -1.18628552	      2.06482070	      3.31679426	     -0.82525152	      2.06482070	      2.73147762	     -0.67051235	      1.73175223	      2.53637208	     -0.41258966	      1.31545911	      2.34126653	     -5.15765954	      9.60667302	     17.36189610	      0.00000000	      0.00000000	      0.57324623	      5.19227852	    -41.98565578	     66.42857687	    -40.32943128	    -25.00522890	    111.19212571	     84.07281100	    -35.55705816	     10.52862644	     66.42866926	     45.80806769	    186.60842905	      0.06485653	      1.00837943	    -69.82563179	    -24.47306517
     12.37500000	      9.12550098	      8.34824468	     85.23321180	      0.06255735	      1.08665522	      0.31551167	     -9.28506324	      6.46520335	    -15.03709764	     13.32832442	      0.23262314	     30.18671862	     17.10635671	      0.00000000	     -9.08589242	     -7.60471185	      5.08174776	     14.68011664	      0.25621637	     30.81414811	      0.51174979	      0.00000000	     -0.73495880	      0.85935227	      3.03757815	     -1.36489198	      1.14293851	      3.22742678	     -1.20746381	      2.08942910	      3.22742678	     -0.83998441	      2.08942910	      2.65788088	     -0.68248274	      1.75239114	      2.46803224	     -0.41995546	      1.33113666	      2.27818361	     -5.24973720	      9.72116470	     16.89409837	      0.00000000	      0.00000000	      0.94861153	      5.39536669	    -41.71664896	     66.98168013	    -39.43798495	    -25.47354448	    111.89167877	     83.29227679	    -34.83034641	     11.41837142	     66.49989637	     45.95833074	    186.00940646	      0.06490913	      0.99400080	    -69.82696470	    -24.46345704
